# AST/ASF file generated using VICON BodyLanguage
# -----------------------------------------------
:version 1.10
:name VICON
:units
  mass 1.0
  length 0.45
  angle deg
:documentation
   .ast/.asf automatically generated from VICON data using
   VICON BodyBuilder and BodyLanguage model FoxedUp or BRILLIANT.MOD
:root
   order TX TY TZ RX RY RZ
   axis XYZ
   position 0 0 0  
   orientation 0 0 0 
:bonedata
  begin
     id 1 
     name lhipjoint
     direction 0.566809 -0.746272 0.349008 
     length 2.40479 
     axis 0 0 0  XYZ
  end
  begin
     id 2 
     name lfemur
     direction 0.34202 -0.939693 0  
     length 7.1578  
     axis 0 0 20  XYZ
    dof rx ry rz
    limits (-160.0 20.0)
           (-70.0 70.0)
           (-60.0 70.0)
  end
  begin
     id 3 
     name ltibia
     direction 0.34202 -0.939693 0   
     length 7.49137   
     axis 0 0 20   XYZ
    dof rx
    limits (-10.0 170.0)
  end
  begin
     id 4 
     name lfoot
     direction 0.0665746 -0.182912 0.980873   
     length 2.36784   
     axis -90 7.62852e-016 20   XYZ
    dof rx rz
    limits (-45.0 90.0)
           (-70.0 20.0)
  end
  begin
     id 5 
     name ltoes
     direction 1.53601e-011 -4.22058e-011 1   
     length 1.18966   
     axis -90 7.62852e-016 20   XYZ
    dof rx
    limits (-90.0 20.0)
  end
  begin
     id 6 
     name rhipjoint
     direction -0.550236 -0.756381 0.353735   
     length 2.37265  
     axis 0 0 0  XYZ 
  end
  begin
     id 7 
     name rfemur
     direction -0.34202 -0.939693 0   
     length 7.43386   
     axis 0 0 -20   XYZ
    dof rx ry rz
    limits (-160.0 20.0)
           (-70.0 70.0)
           (-70.0 60.0)
  end
  begin
     id 8 
     name rtibia
     direction -0.34202 -0.939693 0   
     length 7.50908   
     axis 0 0 -20   XYZ
    dof rx
    limits (-10.0 170.0)
 end
 begin
     id 9 
     name rfoot
     direction -0.0683029 -0.187661 0.979856   
     length 2.41173  
     axis -90 -7.62852e-016 -20   XYZ
    dof rx rz
    limits (-45.0 90.0)
           (-20.0 70.0)
  end
  begin
     id 10 
     name rtoes
     direction -1.53528e-011 -4.21968e-011 1   
     length 1.21082   
     axis -90 -7.62852e-016 -20   XYZ
    dof rx
    limits (-90.0 20.0)
  end
  begin
     id 11 
     name lowerback
     direction 0.013823 0.995423 -0.0945635   
     length 2.04495   
     axis 0 0 0   XYZ
    dof rx ry rz
    limits (-20.0 45.0)
           (-30.0 30.0)
           (-30.0 30.0)
  end
  begin
     id 12 
     name upperback
     direction 0.0276657 0.9994 -0.020853   
     length 2.05008   
     axis 0 0 0   XYZ
    dof rx ry rz
    limits (-20.0 45.0)
           (-30.0 30.0)
           (-30.0 30.0)
  end
  begin
     id 13 
     name thorax
     direction 0.019782 0.999531 0.0233827   
     length 2.06488   
     axis 0 0 0   XYZ
    dof rx ry rz
    limits (-20.0 45.0)
           (-30.0 30.0)
           (-30.0 30.0)
  end
  begin
     id 14 
     name lowerneck
     direction -0.0308541 0.994709 0.0979874   
     length 1.75553   
     axis 0 0 0   XYZ
    dof rx ry rz
    limits (-20.0 45.0)
           (-30.0 30.0)
           (-30.0 30.0)
  end
  begin
     id 15 
     name upperneck
     direction 0.0588398 0.995804 -0.0700903   
     length 1.76878   
     axis 0 0 0   XYZ
    dof rx ry rz
    limits (-20.0 45.0)
           (-30.0 30.0)
           (-30.0 30.0)
  end
  begin
     id 16
     name head
     direction 0.0209966 0.999159 -0.0352225  
     length 1.77193  
     axis 0 0 0   XYZ
    dof rx ry rz
    limits (-20.0 45.0)
           (-30.0 30.0)
           (-30.0 30.0)
  end
  begin
     id 17 
     name lclavicle
     direction 0.938182 0.335073 -0.0868338  
     length 3.58396  
     axis 0 0 0   XYZ
    dof ry rz
    limits (-20.0 10.0)
           (0.0 20.0)
  end
  begin
     id 18 
     name lhumerus
     direction 1 -4.48971e-011 -1.26313e-017   
     length 4.983   
     axis 180 -30 -90   XYZ
    dof rx ry rz
    limits (-60.0 90.0)
           (-90.0 90.0)
           (-90.0 90.0)
  end
  begin
     id 19
     name lradius
     direction 1 -4.48948e-011 -5.89033e-027   
     length 3.48356   
     axis 180 -30 -90   XYZ
    dof rx
    limits (-10.0 170.0)
  end
  begin
     id 20
     name lwrist
     direction 1 -4.48977e-011 -1.48983e-026   
     length 1.74178   
     axis 9.0955e-015 90 90   XYZ
    dof ry
    limits (-180.0 0.0)
 end
  begin
     id 21 
     name lhand
     direction 1 -4.49046e-011 -2.98066e-026   
     length 0.715259   
     axis 1.90115e-014 90 90   XYZ
    dof rx rz
    limits (-90.0 90.0)
           (-45.0 45.0)
  end
  begin
     id 22 
     name lfingers
     direction 1 -4.48907e-011 -5.95731e-026   
     length 0.576661   
     axis 3.80223e-014 90 90   XYZ
    dof rx
    limits (0.0 90.0)
  end
  begin
     id 23
     name lthumb
     direction 0.707107 -6.34963e-011 0.707107   
     length 0.827973   
     axis -90 45 -3.84942e-014   XYZ
    dof rx rz
    limits (-45.0 45.0)
           (-45.0 45.0)
  end
  begin
     id 24 
     name rclavicle
     direction -0.909637 0.398485 -0.11735   
     length 3.44819  
     axis 0 0 0   XYZ 
    dof ry rz
    limits (-10.0 20.0)
           (-20.0 0.0)
  end
  begin
     id 25 
     name rhumerus
     direction -1 -4.48978e-011 -1.09333e-027  
     length 5.2419   
     axis 180 30 90   XYZ
    dof rx ry rz
    limits (-90.0 60.0)
           (-90.0 90.0)
           (-90.0 90.0)
  end
  begin
     id 26 
     name rradius
     direction -1 -4.48953e-011 -7.61841e-027   
     length 3.44417   
     axis 180 30 90   XYZ
    dof rx
    limits (-10.0 170.0)
  end
  begin
     id 27 
     name rwrist
     direction -1 -4.48977e-011 -1.48983e-026   
     length 1.72209   
     axis 9.0955e-015 -90 -90   XYZ
    dof ry
    limits (-180.0 0.0)
  end
  begin
     id 28
     name rhand
     direction -1 -4.49027e-011 -2.98038e-026   
     length 0.622529   
     axis 1.90115e-014 -90 -90   XYZ
    dof rx rz
    limits (-90.0 90.0)
           (-45.0 45.0)
  end
  begin
     id 29
     name rfingers
     direction -1 -4.48838e-011 -5.95531e-026   
     length 0.501899   
     axis 3.80223e-014 -90 -90   XYZ
    dof rx
    limits (0.0 90.0)
  end
  begin
     id 30
     name rthumb
     direction -0.707107 -6.34937e-011 0.707107   
     length 0.720629   
     axis -90 -45 3.84942e-014   XYZ
    dof rx rz
    limits (-45.0 45.0)
           (-45.0 45.0)
  end
:hierarchy
  begin
    root lhipjoint rhipjoint lowerback
    lhipjoint lfemur
    lfemur ltibia
    ltibia lfoot
    lfoot ltoes
    rhipjoint rfemur
    rfemur rtibia
    rtibia rfoot
    rfoot rtoes
    lowerback upperback
    upperback thorax
    thorax lowerneck lclavicle rclavicle
    lowerneck upperneck
    upperneck head
    lclavicle lhumerus
    lhumerus lradius
    lradius lwrist
    lwrist lhand lthumb
    lhand lfingers
    rclavicle rhumerus
    rhumerus rradius
    rradius rwrist
    rwrist rhand rthumb
    rhand rfingers
  end

#!OML:ASF F:\VICON\USERDATA\Patient Classification 1\PLAYGROUND\JustinFriday\JustinFriday.ASF
:FULLY-SPECIFIED
:DEGREES
1361
root 29.6651 22.6534 4.21595 -20.7264 -6.99156 6.05364
lowerback 7.74432 0.879803 -7.73176
upperback 0.177489 0.530049 1.1323
thorax -4.25349 0.431157 5.48649
lowerneck 16.6553 -7.38992 -21.401
upperneck 18.3915 -13.4707 3.38301
head 4.83026 -8.04493 4.33322
rclavicle -1.98785e-014 -1.74931e-014
rhumerus 53.7105 -48.1953 -19.7262
rradius 69.7956
rwrist -38.9164
rhand -17.6173 -26.4098
rfingers 7.12502
rthumb 8.63971 -56.213
lclavicle -1.98785e-014 -1.74931e-014
lhumerus 44.3624 52.2614 10.2096
lradius 69.372
lwrist 26.4837
lhand -8.4452 6.71472
lfingers 7.12502
lthumb 17.4804 35.9488
rfemur 2.53176 -7.88562 9.25924
rtibia 41.9846
rfoot 15.7039 -18.6811
rtoes 28.1372
lfemur 7.14644 3.98748 -21.4384
ltibia 34.4874
lfoot 22.7155 -4.77205
ltoes -1.83278
1362
root 29.6492 22.4197 4.28645 -19.8878 -8.21015 4.02602
lowerback 7.5608 0.711394 -5.89365
upperback -0.756867 0.512541 2.16675
thorax -5.1205 0.451883 5.54076
lowerneck 18.8919 -6.99987 -22.4263
upperneck 17.2304 -13.6363 3.28208
head 4.24486 -8.1601 4.56247
rclavicle 1.41137e-014 -3.97569e-015
rhumerus 55.8375 -46.7876 -19.3268
rradius 67.319
rwrist -38.6457
rhand -18.9981 -26.8643
rfingers 7.12502
rthumb 7.307 -56.7181
lclavicle 1.41137e-014 -3.97569e-015
lhumerus 40.1644 52.0738 2.9128
lradius 66.7453
lwrist 28.7818
lhand -10.1346 8.07294
lfingers 7.12502
lthumb 15.854 37.4439
rfemur 2.56931 -6.67596 12.3886
rtibia 41.3873
rfoot 15.4847 -19.6805
rtoes 29.1601
lfemur 6.72274 3.64127 -19.0074
ltibia 34.0467
lfoot 22.2515 -5.76292
ltoes -3.34543
1363
root 29.6901 22.1434 4.30703 -18.6688 -7.36091 6.72898
lowerback 6.13149 1.83881 -6.69917
upperback 0.654298 1.97874 -0.497263
thorax -2.97266 1.062 3.06947
lowerneck 15.1749 -10.1703 -16.9101
upperneck 16.4138 -16.2038 2.95238
head 4.30659 -8.99801 3.43363
rclavicle -1.54058e-014 9.93923e-016
rhumerus 53.2631 -52.0094 -16.7948
rradius 64.8503
rwrist -37.3836
rhand -19.311 -27.6923
rfingers 7.12502
rthumb 7.00499 -57.5564
lclavicle -1.54058e-014 9.93923e-016
lhumerus 52.1103 54.7111 11.3233
lradius 64.0798
lwrist 24.8142
lhand -12.169 8.46117
lfingers 7.12502
lthumb 13.8941 37.977
rfemur 1.38821 -7.63374 8.77175
rtibia 40.7372
rfoot 17.34 -18.3098
rtoes 29.0443
lfemur 4.75729 2.80259 -22.7823
ltibia 33.9531
lfoot 21.9021 -5.33942
ltoes -2.6466
1364
root 29.6798 21.9014 4.36871 -17.4056 -8.95267 3.40386
lowerback 5.36971 1.46262 -3.51175
upperback 0.506842 1.76352 0.87369
thorax -2.62206 0.922104 2.73757
lowerneck 15.0209 -9.74555 -17.7866
upperneck 15.9538 -15.7522 3.27351
head 4.23486 -8.79551 3.67029
rclavicle -9.93923e-015 9.54166e-015
rhumerus 57.995 -51.922 -19.4052
rradius 62.5644
rwrist -35.8483
rhand -19.3512 -28.3452
rfingers 7.12502
rthumb 6.96616 -58.2106
lclavicle -9.93923e-015 9.54166e-015
lhumerus 53.8182 54.3249 12.9319
lradius 61.8473
lwrist 19.9467
lhand -13.8434 9.04811
lfingers 7.12502
lthumb 12.2801 38.6675
rfemur 1.28474 -6.09818 13.5614
rtibia 39.677
rfoot 16.9457 -20.4173
rtoes 31.1855
lfemur 3.7572 2.31132 -18.8859
ltibia 34.3705
lfoot 20.6133 -5.22274
ltoes -1.0364
1365
root 29.6858 21.6375 4.40116 -15.9394 -10.0551 0.867349
lowerback 5.00162 1.26345 -0.843853
upperback -0.545016 1.68409 1.51042
thorax -3.43669 0.868333 1.89723
lowerneck 16.8038 -9.46573 -17.5666
upperneck 15.3899 -15.6721 3.22767
head 3.77005 -8.75283 3.75709
rclavicle -1.78906e-014 1.98785e-015
rhumerus 60.4548 -50.7481 -21.1701
rradius 60.8463
rwrist -34.3092
rhand -20.1499 -29.1551
rfingers 7.12502
rthumb 6.19507 -59.0445
lclavicle -1.78906e-014 1.98785e-015
lhumerus 50.0147 54.378 6.71973
lradius 60.6518
lwrist 20.4185
lhand -16.2866 10.5675
lfingers 7.12502
lthumb 9.92366 40.3136
rfemur 0.768321 -4.93825 17.1609
rtibia 38.7523
rfoot 16.4125 -22.0453
rtoes 32.7444
lfemur 2.22343 1.6624 -16.071
ltibia 35.1485
lfoot 19.2462 -4.67515
ltoes 3.28467
1366
root 29.6878 21.3661 4.41126 -14.1803 -11.0178 -1.77806
lowerback 4.64715 0.995899 1.80263
upperback -0.990929 1.50909 2.10909
thorax -3.63946 0.734163 1.04713
lowerneck 16.2575 -9.7089 -16.7122
upperneck 14.8984 -15.7492 2.91522
head 3.60463 -8.72289 3.52836
rclavicle 4.05521e-014 -8.74653e-015
rhumerus 64.205 -51.0839 -23.4714
rradius 58.9066
rwrist -33.4753
rhand -22.1651 -30.7171
rfingers 7.12502
rthumb 4.2493 -60.6544
lclavicle 4.05521e-014 -8.74653e-015
lhumerus 53.1965 53.6224 9.48764
lradius 59.4907
lwrist 15.4102
lhand -19.2397 11.3524
lfingers 7.12502
lthumb 7.07374 41.2142
rfemur -0.000588853 -3.68183 20.8893
rtibia 37.682
rfoot 16.3125 -22.9872
rtoes 33.0454
lfemur 0.315415 1.14245 -13.081
ltibia 35.9179
lfoot 17.7855 -4.86006
ltoes 4.34997
1367
root 29.6839 21.0679 4.40551 -12.2507 -12.4177 -5.3044
lowerback 4.67309 0.717784 5.08425
upperback -1.23111 1.37752 3.03904
thorax -3.85671 0.599116 0.18424
lowerneck 14.3502 -9.79053 -15.6966
upperneck 15.0441 -15.4076 2.77462
head 3.79296 -8.48647 3.24675
rclavicle -2.87244e-014 1.19271e-014
rhumerus 69.0248 -51.0882 -28.0932
rradius 57.9172
rwrist -31.3426
rhand -24.4551 -31.8335
rfingers 7.12502
rthumb 2.03782 -61.8036
lclavicle -2.87244e-014 1.19271e-014
lhumerus 49.3929 55.1158 3.91124
lradius 59.5641
lwrist 15.2273
lhand -21.6338 12.6232
lfingers 7.12502
lthumb 4.76237 42.5497
rfemur -0.993036 -1.84545 25.6741
rtibia 36.9901
rfoot 16.879 -23.577
rtoes 33.6827
lfemur -1.51032 0.944452 -8.94871
ltibia 36.5556
lfoot 16.4175 -5.38269
ltoes 2.05895
1368
root 29.6773 20.7576 4.48092 -13.2043 -11.7942 -2.69162
lowerback 5.07347 0.236287 2.17873
upperback -0.501145 0.520635 2.1865
thorax -3.36447 0.237907 0.99033
lowerneck 11.2829 -9.95006 -14.1029
upperneck 15.3597 -14.9516 2.29384
head 4.1378 -8.161 2.71525
rclavicle -2.65378e-014 -1.55052e-014
rhumerus 74.6659 -51.054 -33.9726
rradius 57.3778
rwrist -28.5116
rhand -25.9605 -33.0397
rfingers 7.12502
rthumb 0.583874 -63.0186
lclavicle -2.65378e-014 -1.55052e-014
lhumerus 48.2909 56.3001 1.72343
lradius 59.6539
lwrist 12.9882
lhand -24.1382 13.1527
lfingers 7.12502
lthumb 2.34391 43.1196
rfemur 0.109415 -2.07037 22.597
rtibia 36.756
rfoot 17.9069 -22.1619
rtoes 34.0198
lfemur -0.938303 -0.143433 -12.2366
ltibia 36.7281
lfoot 14.4539 -4.62715
ltoes -0.81273
1369
root 29.6814 20.4398 4.52151 -13.094 -11.4671 -1.76985
lowerback 5.36185 0.38724 1.13536
upperback -0.859725 0.678071 2.27263
thorax -3.91124 0.33659 1.6514
lowerneck 12.2568 -10.0169 -15.0373
upperneck 14.2773 -15.2975 2.71301
head 3.79111 -8.34145 3.03913
rclavicle 4.27387e-015 -2.90226e-014
rhumerus 76.7264 -50.5911 -35.2517
rradius 57.7997
rwrist -26.1088
rhand -27.5109 -34.9691
rfingers 7.12502
rthumb -0.913578 -64.9469
lclavicle 4.27387e-015 -2.90226e-014
lhumerus 49.4967 56.0311 3.74487
lradius 60.2388
lwrist 11.9064
lhand -26.8523 12.7416
lfingers 7.12502
lthumb -0.277425 42.7211
rfemur 0.152631 -2.27155 21.5097
rtibia 36.6871
rfoot 19.1665 -20.816
rtoes 30.4193
lfemur -1.37795 -0.987115 -13.4838
ltibia 36.9709
lfoot 13.2401 -3.75121
ltoes -1.20529
1370
root 29.6875 20.0973 4.53851 -12.6848 -11.2468 -1.90961
lowerback 5.1945 0.377012 1.41646
upperback -0.743181 0.678494 2.37463
thorax -3.69432 0.331899 1.59958
lowerneck 12.6357 -10.1627 -15.5637
upperneck 12.9878 -15.6383 3.33649
head 3.45361 -8.47736 3.34025
rclavicle -1.27222e-014 -1.19271e-015
rhumerus 79.4428 -50.5241 -38.0292
rradius 59.0426
rwrist -23.8797
rhand -29.0465 -35.5222
rfingers 7.12502
rthumb -2.39665 -65.4884
lclavicle -1.27222e-014 -1.19271e-015
lhumerus 51.3031 56.4675 6.34684
lradius 61.2803
lwrist 11.2804
lhand -29.5734 11.2337
lfingers 7.12502
lthumb -2.90547 41.1936
rfemur -0.147355 -2.5195 21.69
rtibia 36.9384
rfoot 19.5497 -19.5011
rtoes 23.9449
lfemur -1.98932 -1.9078 -13.4892
ltibia 37.1501
lfoot 13.1588 -3.69904
ltoes 3.1221
1371
root 29.6789 19.7365 4.5511 -12.4977 -11.4716 -2.81414
lowerback 5.56347 0.466839 2.30255
upperback -0.47442 0.866219 2.53494
thorax -3.61751 0.409028 1.25017
lowerneck 12.3573 -10.5734 -15.3442
upperneck 12.0627 -16.1511 3.91597
head 3.28242 -8.67458 3.47054
rclavicle -4.47266e-015 7.15625e-015
rhumerus 81.0859 -50.7602 -39.7976
rradius 60.5911
rwrist -23.6502
rhand -31.5602 -34.328
rfingers 7.12502
rthumb -4.82405 -64.2531
lclavicle -4.47266e-015 7.15625e-015
lhumerus 53.7261 56.9685 9.30292
lradius 62.4909
lwrist 10.2938
lhand -32.2121 10.0293
lfingers 7.12502
lthumb -5.45352 39.9392
rfemur -0.113432 -2.19155 23.0147
rtibia 37.3387
rfoot 19.8889 -19.7428
rtoes 27.5222
lfemur -2.38284 -2.50552 -12.4572
ltibia 37.846
lfoot 13.4426 -3.90941
ltoes 7.70045
1372
root 29.6615 19.3686 4.55354 -12.1193 -12.1992 -4.44333
lowerback 6.08549 0.620509 3.6874
upperback -0.124192 1.19232 2.96835
thorax -3.53328 0.550411 0.890682
lowerneck 11.44 -10.9962 -14.7194
upperneck 11.2302 -16.5326 4.37483
head 3.18183 -8.78947 3.47232
rclavicle -2.94201e-014 2.50469e-014
rhumerus 82.4169 -51.0045 -41.2541
rradius 62.4803
rwrist -24.569
rhand -35.3603 -32.1274
rfingers 7.12502
rthumb -8.49249 -61.9367
lclavicle -2.94201e-014 2.50469e-014
lhumerus 55.8411 57.6864 11.9999
lradius 63.8811
lwrist 9.04547
lhand -34.9531 9.35928
lfingers 7.12502
lthumb -8.09947 39.1841
rfemur -0.28757 -1.65803 25.383
rtibia 38.2848
rfoot 19.1785 -20.1301
rtoes 21.7353
lfemur -3.01748 -2.41346 -10.3134
ltibia 38.9175
lfoot 12.6803 -4.31003
ltoes 7.82258
1373
root 29.6569 18.9942 4.54809 -11.7213 -12.4598 -5.33582
lowerback 6.80422 0.649784 4.46042
upperback -0.0103643 1.33734 3.19366
thorax -3.80703 0.606403 0.670934
lowerneck 10.4182 -11.2719 -14.3422
upperneck 10.582 -16.7423 4.86362
head 3.16309 -8.8359 3.50813
rclavicle 3.08116e-015 -2.98177e-014
rhumerus 84.8291 -50.9455 -44.26
rradius 64.1715
rwrist -22.3257
rhand -35.3151 -29.1682
rfingers 7.12502
rthumb -8.44892 -58.9792
lclavicle 3.08116e-015 -2.98177e-014
lhumerus 56.1699 58.0365 12.8701
lradius 65.6056
lwrist 8.68031
lhand -37.9404 8.27415
lfingers 7.12502
lthumb -10.9818 37.9669
rfemur -0.609793 -2.42209 26.5922
rtibia 39.9648
rfoot 10.8486 -17.4707
rtoes 9.88181
lfemur -3.9808 -2.36047 -9.07221
ltibia 40.2927
lfoot 10.9252 -4.3158
ltoes 5.25312
1374
root 29.6671 18.6051 4.52963 -11.4647 -12.285 -5.45165
lowerback 7.67932 0.58084 4.55423
upperback -0.119968 1.32226 3.21673
thorax -4.41315 0.586239 0.634098
lowerneck 10.306 -11.3815 -14.4442
upperneck 9.43182 -16.906 5.6496
head 2.91527 -8.87868 3.77262
rclavicle 3.08116e-014 3.65764e-014
rhumerus 88.3229 -50.6084 -48.6858
rradius 65.3813
rwrist -15.7651
rhand -38.318 -21.9221
rfingers 7.12502
rthumb -11.346 -51.5952
lclavicle 3.08116e-014 3.65764e-014
lhumerus 55.5834 58.061 12.9717
lradius 67.4509
lwrist 8.46486
lhand -40.6924 7.25093
lfingers 7.12502
lthumb -13.6352 36.7843
rfemur -0.918972 -3.6913 26.7642
rtibia 42.2991
rfoot 4.92337 -14.7637
rtoes -5.31687
lfemur -4.97328 -2.57371 -8.8223
ltibia 42.0862
lfoot 6.92696 -5.01628
ltoes -1.93614
